<?xml version="1.0" encoding="UTF-8"?>
<svg id="Layer_1" xmlns="http://www.w3.org/2000/svg" version="1.1" viewBox="0 0 14 14">
  <!-- Generator: Adobe Illustrator 29.8.4, SVG Export Plug-In . SVG Version: 2.1.1 Build 6)  -->
  <defs>
    <style>
      .st0 {
        fill: #fff;
      }
    </style>
  </defs>
  <path class="st0" d="M11.45,3.68c-.15-.24-.44-.31-.69-.18-2.05,1.07-4.28,2.28-5.34,4.45-.08.16-.13.33-.19.5-.11-.22-.23-.43-.37-.62-.43-.59-1.01-1.08-1.73-1.28-.25-.07-.56.08-.62.35-.06.26.08.54.35.62h0c.07.02.14.04.21.06h.04s.06.04.08.06c.06.03.13.07.19.11.03.02.05.04.08.05.01,0,.03.03.05.03.11.09.21.19.31.29.05.05.1.11.14.17h0s.05.08.07.11c.39.56.57,1.15.75,1.81.12.46.87.5.97,0,.06-.29.12-.58.19-.86.04-.14.08-.28.13-.43.02-.06.04-.12.06-.17.01-.03.03-.06.04-.1-.03.06.01-.03.02-.05.1-.23.23-.46.37-.68.15-.24.28-.41.43-.59.71-.86,1.56-1.47,2.51-2.03.57-.34,1.17-.65,1.76-.96.23-.12.32-.46.18-.69,0,0,.01.02.01.02Z"/>
</svg>