<?xml version="1.0" encoding="UTF-8"?>
<svg id="Layer_1" xmlns="http://www.w3.org/2000/svg" version="1.1" viewBox="0 0 14 14">
  <!-- Generator: Adobe Illustrator 29.8.4, SVG Export Plug-In . SVG Version: 2.1.1 Build 6)  -->
  <defs>
    <style>
      .st0 {
        fill: #fff;
      }
    </style>
  </defs>
  <path class="st0" d="M11.45,2.82c-.15-.29-.51-.4-.8-.25-1.71.9-3.27,2.07-4.61,3.46-.67-1.16-1.04-2.28-1.05-3.3,0-.33-.27-.6-.6-.59-.33,0-.59.27-.59.6.01,1.34.49,2.75,1.41,4.2-1.04,1.22-1.94,2.57-2.64,4.02-.14.3-.01.65.28.79.08.04.17.06.26.06.22,0,.44-.12.53-.34.6-1.26,1.37-2.45,2.26-3.52.03.03.05.07.07.1.95,1.23,2.28,2.76,4.16,3.74.09.05.18.07.27.07.22,0,.42-.12.53-.32.15-.29.03-.65-.26-.8-1.67-.87-2.89-2.28-3.76-3.41-.07-.1-.14-.19-.21-.28,1.3-1.37,2.82-2.53,4.5-3.42.29-.15.4-.51.25-.8,0,0,.01,0,.01,0Z"/>
</svg>