<?xml version="1.0" encoding="UTF-8"?>
<svg id="Layer_1" xmlns="http://www.w3.org/2000/svg" version="1.1" viewBox="0 0 14 14">
  <!-- Generator: Adobe Illustrator 29.8.4, SVG Export Plug-In . SVG Version: 2.1.1 Build 6)  -->
  <defs>
    <style>
      .st0 {
        fill: #231f20;
      }

      .st1 {
        fill: #fff;
      }
    </style>
  </defs>
  <path class="st0" d="M27.48,6.42c-.27,0-.49.22-.49.49,0,1.82-1.49,3.31-3.31,3.31s-3.31-1.49-3.31-3.31c0-1.68,1.26-3.05,2.88-3.27l-.22.39,2.24-.92-2.24-.91.26.44c-2.18.2-3.9,2.04-3.9,4.27,0,2.36,1.93,4.29,4.29,4.29s4.29-1.93,4.29-4.29c0-.27-.22-.49-.49-.49Z"/>
  <polygon class="st1" points="13 7 4.86 3.67 6.49 6.49 0 6.49 0 7.51 6.49 7.51 4.86 10.33 13 7"/>
</svg>