<?xml version="1.0" encoding="UTF-8"?>
<svg id="Layer_1" xmlns="http://www.w3.org/2000/svg" version="1.1" viewBox="0 0 512 512">
  <!-- Generator: Adobe Illustrator 29.8.4, SVG Export Plug-In . SVG Version: 2.1.1 Build 6)  -->
  <defs>
    <style>
      .st0 {
        fill: #006cd9;
      }

      .st1 {
        fill: #fff;
      }

      .st2 {
        fill: #009eff;
      }
    </style>
  </defs>
  <path class="st2" d="M435.2,392.4c4.16-4.16,6.54-5.94,10.1-5.94,5.35,0,8.32,4.76,8.32,8.32,0,6.54-3.57,11.29-9.51,19.02-12.48,16.05-38.04,39.23-75.48,39.23s-57.65-26.75-57.65-65.97c0-33.88,9.51-86.78,14.27-109.96-30.31,0-46.36,13.67-61.22,41.6-37.44,71.32-70.73,137.3-155.13,137.3-53.49,0-93.31-33.28-93.31-83.21,0-55.87,58.25-81.43,82.62-81.43,5.94,0,8.32,3.57,8.32,7.73,0,7.13-10.7,15.45-10.7,29.12,0,18.42,10.1,30.91,34.47,30.91,36.26,0,70.13-56.46,98.07-101.64,33.28-54.09,65.97-116.49,102.23-149.18-20.8-6.54-48.74-11.89-77.27-11.89-33.88,0-57.65,21.4-57.65,43.39,0,17.24,9.51,26.15,24.96,26.15,9.51,0,13.67-5.94,17.83-5.94,3.57,0,6.54,2.38,6.54,6.54,0,21.99-28.53,60.03-70.13,60.03-36.85,0-67.76-27.34-67.76-68.95,0-64.19,61.81-101.63,128.97-101.63,63.6,0,98.66,16.05,128.38,16.05,48.74,0,74.89-9.51,84.4-9.51,7.73,0,10.7,4.76,10.7,10.1,0,8.32-9.51,16.64-23.77,64.19-15.45,50.52-42.79,174.15-42.79,234.77,0,20.8,6.54,33.28,19.61,33.28,10.1,0,14.86-4.75,22.59-12.48ZM335.35,239.66c10.1-43.98,31.5-92.12,44.58-121.25-35.66,29.12-70.73,91.53-83.21,121.25h38.63Z"/>
  <path class="st1" d="M220.89,413.66c2.94.81,5.8,1.78,8.62,2.92l-7.5-3.16c6.08,2.61,11.69,5.95,16.97,9.93-2.12-1.64-4.24-3.27-6.35-4.91,6.47,5.06,12.16,10.89,17.23,17.35l-4.91-6.35c6.93,9.1,12.32,19.13,16.78,29.64l-3.16-7.5c4.8,11.6,8.45,23.59,11.75,35.69,3.49,12.8,16.63,23.66,30.27,23.05,13.16-.59,27.49-9.22,30.27-23.05,3.44-17.05,7.05-34.04,13.74-50.17l-3.16,7.5c6.13-14.37,14.2-27.71,23.71-40.09-1.64,2.12-3.27,4.24-4.91,6.35,13.08-16.78,28.49-31.46,45.28-44.48l-6.35,4.91c29.91-22.93,63.34-40.44,96.67-57.78,14.59-7.59,20.14-29.19,11.26-42.95-9.59-14.87-27.35-19.38-42.95-11.26-66.61,34.66-138.33,74.54-172.91,144.83-10.46,21.27-16.26,43.35-20.92,66.45h60.55c-6.64-24.37-14.86-49.75-29.86-70.37-15.98-21.98-36.77-39.73-63.43-47.09-15.82-4.37-34.86,5.4-38.62,21.93s4.99,33.94,21.93,38.62h0Z"/>
  <path class="st0" d="M225.06,398.52c2.2.61,4.37,1.3,6.51,2.09,2.54.94-3.13-1.58,1.13.48.91.44,1.82.88,2.71,1.34,2.02,1.05,3.98,2.2,5.89,3.43.85.55,1.69,1.11,2.52,1.69.69.48,2.78,2.05,1.1.73,3.61,2.83,6.96,6.02,10.08,9.38,1.57,1.69,3.06,3.44,4.52,5.23,1.63,2-1.16-1.61.36.47.75,1.03,1.5,2.07,2.22,3.12,12.05,17.6,17.69,35.84,23.35,56.62,3.9,14.3,27.13,15.6,30.27,0,1.82-9.05,3.64-18.1,5.99-27.02,1.17-4.46,2.48-8.88,3.97-13.24.62-1.82,1.28-3.63,1.97-5.42.39-1,.78-2,1.19-3-.8,1.93.35-.77.64-1.43,3.31-7.34,7.16-14.42,11.45-21.22,4.67-7.39,8.7-12.85,13.27-18.31,22.33-26.7,48.84-45.92,78.52-63.49,18.02-10.67,36.61-20.35,55.18-30.01,7.3-3.8,10.07-14.59,5.63-21.48-4.79-7.43-13.67-9.69-21.48-5.63-64.28,33.44-133.88,71.31-167.28,139.2-9.82,19.96-14.97,41.02-19.34,62.7h30.27c-6.31-23.15-14.02-47.01-28.28-66.62-13.53-18.61-31.55-33.66-54.05-39.87-7.91-2.18-17.43,2.7-19.31,10.96s2.49,16.97,10.96,19.31h0Z"/>
</svg>